/* XPM */
static const char * full_xpm[] = {
"16 16 23 1",
" 	c #5F6467",
".	c #5D6265",
"+	c #585D5F",
"@	c #595D60",
"#	c #7E8589",
"$	c #CAD5DB",
"%	c #7E8488",
"&	c #7C8286",
"*	c #5E6366",
"=	c #7B8285",
"-	c #575C5E",
";	c #7A8184",
">	c #565B5D",
",	c #5C6164",
"'	c #798084",
")	c #555A5C",
"!	c #5A5F62",
"~	c #5B6063",
"{	c #5A5E61",
"]	c #868E92",
"^	c #838A8E",
"/	c #787F83",
"(	c #7F868A",
" .+++++++++++@ #",
".$$$$$$$$$$$$$ %",
"+$&&&&$$$&&&&$ &",
"+$&&&$$$$$&&&$ &",
"+$&&&&$$$&&&&$ &",
"+$&$&&&$&&&$&$ &",
"+$$$$&&&&&$$$$*=",
"-$$$$$&&&$$$$$.;",
">$$$$&&&&&$$$$,'",
")$&$&&&$&&&$&$,'",
">$&&&&$$$&&&&$,'",
"!$&&&$$$$$&&&$~'",
"~$&&&&$$$&&&&$~;",
"@$$$$$$$$$$$$$!;",
"!!!!!!!!!!!!!{!;",
"]^////////////'("};
